<svg xmlns="http://www.w3.org/2000/svg" style="display:none">
  <symbol id="icon-car" viewBox="0 0 24 24">
    <path d="M4 11l1.5-4.5A2 2 0 0 1 7.4 5h9.2a2 2 0 0 1 1.9 1.5L20 11v7h-2v-1H6v1H4v-7zm3.5 4a1.5 1.5 0 1 0 0-3 1.5 1.5 0 0 0 0 3zm9 0a1.5 1.5 0 1 0 0-3 1.5 1.5 0 0 0 0 3z" />
  </symbol>
  <symbol id="icon-energy" viewBox="0 0 24 24">
    <path d="M13 2l-7 12h4v8l7-12h-4z" />
  </symbol>
  <symbol id="icon-charger" viewBox="0 0 24 24">
    <path d="M9 2h6a2 2 0 0 1 2 2v17a1 1 0 0 1-1 1h-8a1 1 0 0 1-1-1V4a2 2 0 0 1 2-2zm7 6h3v2h-3V8zm0 4h3v2h-3v-2zM9 6v2h6V6H9zm0 4v2h6v-2H9zm0 4v2h6v-2H9z" />
  </symbol>
  <symbol id="icon-euro" viewBox="0 0 24 24">
    <path d="M15 4a5 5 0 0 0-4.9 4H7v2h2.8a6 6 0 0 0 0 4H7v2h3.1A5 5 0 0 0 15 20h2v-2h-2a3 3 0 0 1-2.6-1.5H17v-2h-4.9a4 4 0 0 1 0-2H17V8h-4.6A3 3 0 0 1 15 6h2V4z" />
  </symbol>
</svg>
